<svg id="svg" version="1.1" xmlns="http://www.w3.org/2000/svg" xmlns:xlink="http://www.w3.org/1999/xlink" width="400" height="400" viewBox="0, 0, 400,400"><g id="svgg"><path id="path0" d="M291.600 109.253 C 278.573 110.663,269.644 112.735,258.800 116.862 C 254.186 118.618,244.625 123.936,241.209 126.647 C 233.754 132.562,230.189 136.134,225.812 142.072 C 206.724 167.963,203.947 221.187,220.086 251.800 C 220.781 253.120,221.542 254.604,221.775 255.097 C 222.009 255.590,222.335 255.995,222.500 255.997 C 222.665 255.999,222.800 256.196,222.800 256.435 C 222.800 256.803,224.974 260.185,225.605 260.800 C 225.719 260.910,226.609 261.990,227.585 263.200 C 229.855 266.015,233.985 270.145,236.800 272.415 C 238.010 273.391,239.090 274.293,239.200 274.421 C 242.315 278.033,258.593 285.541,269.400 288.351 C 278.495 290.715,294.878 292.365,304.096 291.845 C 314.967 291.232,321.687 290.613,328.000 289.642 C 329.430 289.422,331.320 289.132,332.200 288.998 C 333.825 288.749,334.807 288.541,339.800 287.389 C 343.812 286.462,350.231 284.465,352.691 283.377 C 355.084 282.318,354.972 282.761,354.404 276.600 C 354.202 274.400,353.849 270.530,353.621 268.000 C 351.684 246.511,351.648 246.284,350.275 246.597 C 349.794 246.706,346.520 247.060,343.000 247.382 C 295.127 251.767,281.845 247.866,273.597 227.000 C 267.314 211.106,268.422 174.490,275.654 159.000 C 279.421 150.933,284.757 150.000,327.135 150.000 L 347.172 150.000 347.632 149.140 C 348.178 148.121,348.895 143.286,349.998 133.200 C 350.529 128.348,351.378 114.844,351.165 114.632 C 350.966 114.433,341.175 112.319,337.300 111.639 C 331.149 110.559,326.210 109.868,321.200 109.386 C 317.034 108.984,294.994 108.886,291.600 109.253 M45.600 130.000 L 45.600 149.200 70.351 149.200 C 90.633 149.200,95.183 149.297,95.550 149.740 C 95.876 150.132,96.025 169.077,96.099 219.240 L 96.200 288.200 123.800 288.200 L 151.400 288.200 151.600 218.800 L 151.800 149.400 176.800 149.200 L 201.800 149.000 201.904 130.226 C 201.986 115.472,201.900 111.384,201.504 111.132 C 201.227 110.956,166.035 110.809,123.300 110.806 L 45.600 110.800 45.600 130.000 " stroke="none" fill="#fbe204" fill-rule="evenodd"></path><path id="path1" d="M30.100 0.291 C 29.165 0.376,28.400 0.616,28.400 0.823 C 28.400 1.030,27.961 1.200,27.424 1.200 C 26.887 1.200,26.336 1.380,26.200 1.600 C 26.064 1.820,25.513 2.000,24.976 2.000 C 24.439 2.000,24.000 2.180,24.000 2.400 C 24.000 2.620,23.640 2.800,23.200 2.800 C 22.760 2.800,22.400 2.980,22.400 3.200 C 22.400 3.420,22.040 3.600,21.600 3.600 C 21.160 3.600,20.800 3.780,20.800 4.000 C 20.800 4.220,20.440 4.400,20.000 4.400 C 19.560 4.400,19.200 4.551,19.200 4.736 C 19.200 4.920,18.764 5.270,18.231 5.513 C 17.698 5.756,16.933 6.226,16.531 6.558 C 16.129 6.890,14.720 7.991,13.400 9.004 C 12.080 10.017,11.000 10.971,11.000 11.123 C 11.000 11.276,10.865 11.355,10.700 11.300 C 10.535 11.245,10.400 11.357,10.400 11.550 C 10.400 11.742,9.770 12.587,9.000 13.428 C 8.230 14.269,7.600 15.151,7.600 15.390 C 7.600 15.628,7.240 16.083,6.800 16.400 C 6.360 16.717,6.000 17.307,6.000 17.712 C 6.000 18.116,5.820 18.336,5.600 18.200 C 5.380 18.064,5.200 18.334,5.200 18.800 C 5.200 19.266,5.020 19.536,4.800 19.400 C 4.580 19.264,4.400 19.523,4.400 19.976 C 4.400 20.429,4.220 20.800,4.000 20.800 C 3.780 20.800,3.600 21.034,3.600 21.320 C 3.600 22.056,2.659 23.993,2.300 23.997 C 2.135 23.999,2.000 24.439,2.000 24.976 C 2.000 25.513,1.820 26.064,1.600 26.200 C 1.380 26.336,1.200 26.872,1.200 27.390 C 1.200 27.909,0.975 28.408,0.700 28.500 C -0.036 28.745,-0.036 371.255,0.700 371.500 C 0.975 371.592,1.200 372.091,1.200 372.610 C 1.200 373.128,1.380 373.664,1.600 373.800 C 1.820 373.936,2.000 374.487,2.000 375.024 C 2.000 375.561,2.180 376.000,2.400 376.000 C 2.620 376.000,2.800 376.360,2.800 376.800 C 2.800 377.240,2.980 377.600,3.200 377.600 C 3.420 377.600,3.600 377.960,3.600 378.400 C 3.600 378.840,3.780 379.200,4.000 379.200 C 4.220 379.200,4.400 379.571,4.400 380.024 C 4.400 380.477,4.580 380.736,4.800 380.600 C 5.020 380.464,5.200 380.734,5.200 381.200 C 5.200 381.666,5.380 381.936,5.600 381.800 C 5.820 381.664,6.000 381.857,6.000 382.229 C 6.000 382.602,6.349 383.209,6.775 383.578 C 7.201 383.948,7.606 384.509,7.675 384.825 C 7.744 385.141,8.385 385.994,9.100 386.719 C 9.815 387.445,10.400 388.210,10.400 388.419 C 10.400 388.629,10.625 388.755,10.900 388.700 C 11.175 388.645,11.355 388.825,11.300 389.100 C 11.245 389.375,11.371 389.600,11.581 389.600 C 11.790 389.600,12.555 390.189,13.281 390.909 C 14.006 391.630,15.095 392.470,15.700 392.777 C 16.305 393.084,16.800 393.485,16.800 393.668 C 16.800 393.850,17.171 394.000,17.624 394.000 C 18.077 394.000,18.336 394.180,18.200 394.400 C 18.064 394.620,18.334 394.800,18.800 394.800 C 19.266 394.800,19.536 394.980,19.400 395.200 C 19.264 395.420,19.398 395.600,19.697 395.600 C 20.451 395.600,22.393 396.535,22.397 396.900 C 22.399 397.065,22.760 397.200,23.200 397.200 C 23.640 397.200,24.000 397.380,24.000 397.600 C 24.000 397.820,24.452 398.000,25.005 398.000 C 25.558 398.000,26.323 398.159,26.705 398.353 C 27.087 398.548,27.922 398.953,28.561 399.253 C 30.297 400.071,369.703 400.071,371.439 399.253 C 372.078 398.953,372.913 398.548,373.295 398.353 C 373.677 398.159,374.442 398.000,374.995 398.000 C 375.548 398.000,376.000 397.820,376.000 397.600 C 376.000 397.380,376.360 397.200,376.800 397.200 C 377.240 397.200,377.600 397.020,377.600 396.800 C 377.600 396.580,377.960 396.400,378.400 396.400 C 378.840 396.400,379.200 396.220,379.200 396.000 C 379.200 395.780,379.571 395.600,380.024 395.600 C 380.477 395.600,380.736 395.420,380.600 395.200 C 380.464 394.980,380.734 394.800,381.200 394.800 C 381.666 394.800,381.936 394.620,381.800 394.400 C 381.664 394.180,381.832 394.000,382.173 394.000 C 382.515 394.000,383.229 393.622,383.761 393.159 C 384.293 392.696,384.860 392.352,385.020 392.393 C 385.180 392.434,385.422 392.288,385.558 392.068 C 385.694 391.847,386.489 391.124,387.324 390.460 C 388.159 389.797,388.878 389.107,388.921 388.927 C 388.965 388.747,389.135 388.645,389.300 388.700 C 389.465 388.755,389.600 388.645,389.600 388.456 C 389.600 388.267,390.230 387.444,391.000 386.627 C 391.770 385.811,392.400 384.926,392.400 384.660 C 392.400 384.394,392.760 383.917,393.200 383.600 C 393.640 383.283,394.000 382.693,394.000 382.288 C 394.000 381.884,394.180 381.664,394.400 381.800 C 394.620 381.936,394.800 381.666,394.800 381.200 C 394.800 380.734,394.980 380.464,395.200 380.600 C 395.420 380.736,395.600 380.477,395.600 380.024 C 395.600 379.571,395.780 379.200,396.000 379.200 C 396.220 379.200,396.400 378.840,396.400 378.400 C 396.400 377.960,396.580 377.600,396.800 377.600 C 397.020 377.600,397.200 377.240,397.200 376.800 C 397.200 376.360,397.380 376.000,397.600 376.000 C 397.820 376.000,398.000 375.561,398.000 375.024 C 398.000 374.487,398.180 373.936,398.400 373.800 C 398.620 373.664,398.800 373.128,398.800 372.610 C 398.800 372.091,399.025 371.592,399.300 371.500 C 400.036 371.255,400.036 28.745,399.300 28.500 C 399.025 28.408,398.800 27.909,398.800 27.390 C 398.800 26.872,398.620 26.336,398.400 26.200 C 398.180 26.064,398.000 25.513,398.000 24.976 C 398.000 24.439,397.820 24.000,397.600 24.000 C 397.380 24.000,397.200 23.640,397.200 23.200 C 397.200 22.760,397.020 22.400,396.800 22.400 C 396.580 22.400,396.400 22.040,396.400 21.600 C 396.400 21.160,396.220 20.800,396.000 20.800 C 395.780 20.800,395.600 20.429,395.600 19.976 C 395.600 19.523,395.420 19.264,395.200 19.400 C 394.980 19.536,394.800 19.266,394.800 18.800 C 394.800 18.334,394.620 18.064,394.400 18.200 C 394.180 18.336,394.000 18.116,394.000 17.712 C 394.000 17.307,393.640 16.717,393.200 16.400 C 392.760 16.083,392.400 15.606,392.400 15.340 C 392.400 15.074,391.735 14.169,390.922 13.328 C 390.109 12.488,389.479 11.665,389.522 11.500 C 389.565 11.335,389.465 11.245,389.300 11.300 C 389.135 11.355,388.918 11.220,388.818 11.000 C 388.571 10.457,385.795 8.161,384.363 7.315 C 383.723 6.937,383.200 6.508,383.200 6.362 C 383.200 6.216,382.660 5.873,382.000 5.600 C 381.340 5.327,380.800 4.945,380.800 4.751 C 380.800 4.558,380.440 4.400,380.000 4.400 C 379.560 4.400,379.200 4.220,379.200 4.000 C 379.200 3.780,378.840 3.600,378.400 3.600 C 377.960 3.600,377.600 3.420,377.600 3.200 C 377.600 2.980,377.240 2.800,376.800 2.800 C 376.360 2.800,376.000 2.620,376.000 2.400 C 376.000 2.180,375.561 2.000,375.024 2.000 C 374.487 2.000,373.936 1.820,373.800 1.600 C 373.664 1.380,373.128 1.200,372.610 1.200 C 372.091 1.200,371.592 0.975,371.500 0.700 C 371.343 0.229,35.199 -0.174,30.100 0.291 M314.800 108.421 C 326.681 109.052,335.721 110.229,345.000 112.353 C 345.880 112.554,347.572 112.918,348.760 113.161 C 351.814 113.785,352.001 114.028,351.992 117.349 C 351.980 121.542,350.711 135.133,349.597 143.000 C 349.379 144.540,349.088 146.647,348.951 147.683 C 348.524 150.903,350.409 150.676,322.000 150.936 C 288.660 151.240,282.474 151.826,279.400 154.966 C 277.603 156.802,276.806 158.067,275.600 161.000 C 275.329 161.660,274.948 162.513,274.753 162.895 C 274.559 163.277,274.400 164.031,274.400 164.571 C 274.400 165.111,274.240 165.652,274.044 165.773 C 273.849 165.894,273.586 166.579,273.461 167.296 C 273.336 168.013,273.048 169.590,272.820 170.800 C 271.023 180.376,270.777 183.035,270.537 195.400 C 270.264 209.428,270.701 213.994,273.246 223.700 C 274.025 226.672,277.749 234.624,278.819 235.600 C 278.940 235.710,279.472 236.430,280.002 237.200 C 282.330 240.582,286.196 243.443,291.400 245.635 C 297.052 248.016,320.533 248.701,338.400 247.006 C 349.997 245.905,352.399 245.809,352.405 246.441 C 352.407 246.749,352.682 249.790,353.015 253.200 C 353.348 256.610,353.811 261.560,354.044 264.200 C 354.277 266.840,354.639 270.800,354.848 273.000 C 355.057 275.200,355.330 278.375,355.455 280.055 L 355.681 283.111 352.540 284.315 C 348.888 285.715,344.562 287.082,342.000 287.644 C 341.010 287.861,339.480 288.223,338.600 288.447 C 337.720 288.672,336.055 289.023,334.900 289.228 C 333.745 289.433,331.765 289.790,330.500 290.022 C 328.161 290.451,324.970 290.862,317.800 291.659 C 312.755 292.220,288.530 292.225,284.000 291.666 C 282.130 291.436,279.472 291.124,278.094 290.975 C 276.715 290.825,275.489 290.545,275.370 290.351 C 275.251 290.158,274.591 290.000,273.905 290.000 C 273.218 290.000,272.104 289.832,271.428 289.627 C 270.753 289.422,269.480 289.076,268.600 288.857 C 260.935 286.955,252.751 283.756,247.600 280.650 C 246.610 280.053,245.485 279.462,245.100 279.336 C 244.715 279.210,244.400 278.948,244.400 278.753 C 244.400 278.559,244.164 278.400,243.875 278.400 C 243.587 278.400,242.964 278.040,242.492 277.600 C 242.020 277.160,241.480 276.800,241.292 276.800 C 241.104 276.800,240.596 276.485,240.162 276.100 C 239.727 275.715,238.568 274.775,237.586 274.012 C 233.271 270.657,229.260 266.641,225.988 262.400 C 225.225 261.410,224.510 260.510,224.399 260.400 C 224.289 260.290,223.944 259.705,223.632 259.100 C 223.320 258.495,222.915 258.000,222.732 258.000 C 222.550 258.000,222.400 257.807,222.400 257.572 C 222.400 257.337,221.892 256.392,221.271 255.472 C 218.219 250.954,213.936 240.252,212.357 233.200 C 209.837 221.947,209.473 217.974,209.477 201.800 C 209.480 187.183,209.776 183.257,211.557 174.200 C 213.429 164.676,216.926 155.014,220.821 148.600 C 221.489 147.500,222.138 146.285,222.264 145.900 C 222.390 145.515,222.652 145.200,222.847 145.200 C 223.041 145.200,223.200 144.964,223.200 144.675 C 223.200 144.387,223.520 143.802,223.911 143.375 C 224.302 142.949,225.058 141.970,225.592 141.200 C 226.125 140.430,226.661 139.710,226.783 139.600 C 226.905 139.490,227.485 138.770,228.072 138.000 C 230.506 134.808,236.609 129.068,240.400 126.405 C 241.170 125.864,242.149 125.102,242.575 124.711 C 243.002 124.320,243.587 124.000,243.875 124.000 C 244.164 124.000,244.400 123.841,244.400 123.646 C 244.400 123.451,244.985 122.999,245.700 122.642 C 246.415 122.285,247.900 121.456,249.000 120.801 C 256.097 116.573,266.767 112.690,276.600 110.757 C 283.886 109.324,288.359 108.806,296.970 108.398 C 301.354 108.190,305.127 107.958,305.355 107.882 C 305.583 107.806,306.137 107.808,306.585 107.886 C 307.033 107.964,310.730 108.205,314.800 108.421 M202.548 110.900 C 202.954 112.416,202.823 148.945,202.409 149.600 C 202.079 150.121,198.757 150.214,177.216 150.309 L 152.402 150.418 152.301 219.709 L 152.200 289.000 123.800 289.000 L 95.400 289.000 95.299 219.703 L 95.198 150.406 70.299 150.303 L 45.400 150.200 45.296 130.100 L 45.193 110.000 123.750 110.000 L 202.307 110.000 202.548 110.900 " stroke="none" fill="#94242c" fill-rule="evenodd"></path><path id="path2" d="M301.323 108.699 C 303.920 108.769,308.060 108.768,310.523 108.698 C 312.985 108.628,310.860 108.571,305.800 108.572 C 300.740 108.572,298.725 108.629,301.323 108.699 M289.200 109.200 L 287.000 109.470 289.000 109.500 C 290.100 109.516,291.900 109.390,293.000 109.218 L 295.000 108.907 293.200 108.919 C 292.210 108.925,290.410 109.052,289.200 109.200 M318.400 109.205 C 320.200 109.541,325.081 109.731,324.767 109.453 C 324.675 109.371,322.800 109.207,320.600 109.087 C 317.866 108.938,317.170 108.975,318.400 109.205 M283.000 110.000 L 281.400 110.286 283.000 110.303 C 283.880 110.313,285.050 110.176,285.600 110.000 L 286.600 109.680 285.600 109.697 C 285.050 109.706,283.880 109.842,283.000 110.000 M326.600 109.979 C 327.816 110.310,331.473 110.526,331.167 110.249 C 331.075 110.166,329.740 109.998,328.200 109.875 C 326.434 109.735,325.843 109.773,326.600 109.979 M45.383 110.900 C 45.278 111.175,45.239 119.950,45.296 130.400 L 45.400 149.400 70.400 149.600 L 95.400 149.800 95.600 219.200 L 95.800 288.600 123.449 288.703 C 146.325 288.788,151.175 288.712,151.548 288.263 C 151.876 287.867,152.025 269.130,152.099 218.760 L 152.200 149.800 177.200 149.600 L 202.200 149.400 202.304 130.446 C 202.379 116.783,202.281 111.339,201.955 110.946 C 201.311 110.170,45.680 110.125,45.383 110.900 M278.400 110.800 C 277.043 111.086,277.037 111.095,278.200 111.107 C 278.860 111.115,279.850 110.976,280.400 110.800 C 281.712 110.380,280.396 110.380,278.400 110.800 M332.400 110.787 C 333.391 111.117,336.287 111.335,335.967 111.054 C 335.875 110.974,334.810 110.806,333.600 110.681 C 332.180 110.534,331.754 110.571,332.400 110.787 M201.504 111.132 C 201.900 111.384,201.986 115.472,201.904 130.226 L 201.800 149.000 176.800 149.200 L 151.800 149.400 151.600 218.800 L 151.400 288.200 123.800 288.200 L 96.200 288.200 96.099 219.240 C 96.025 169.077,95.876 150.132,95.550 149.740 C 95.183 149.297,90.633 149.200,70.351 149.200 L 45.600 149.200 45.600 130.000 L 45.600 110.800 123.300 110.806 C 166.035 110.809,201.227 110.956,201.504 111.132 M274.296 111.584 C 273.468 111.744,272.681 111.986,272.546 112.121 C 272.239 112.428,275.122 111.990,276.200 111.566 C 277.179 111.180,276.335 111.188,274.296 111.584 M337.200 111.556 C 338.604 111.997,342.384 112.429,341.400 112.035 C 340.960 111.859,339.610 111.609,338.400 111.479 C 337.115 111.340,336.616 111.372,337.200 111.556 M345.400 113.224 C 348.581 113.971,349.894 114.160,349.558 113.824 C 349.313 113.579,343.533 112.393,342.800 112.437 C 342.470 112.456,343.640 112.811,345.400 113.224 M265.061 114.195 C 262.735 115.001,261.404 115.616,262.033 115.594 C 262.584 115.575,268.890 113.255,268.400 113.251 C 268.070 113.249,266.568 113.674,265.061 114.195 M350.556 114.263 C 351.264 114.466,351.298 114.827,351.093 119.940 C 350.916 124.364,350.945 124.869,351.249 122.600 C 351.865 118.010,351.575 114.226,350.600 114.127 C 349.875 114.054,349.871 114.066,350.556 114.263 M259.000 116.400 C 258.120 116.807,257.605 117.154,257.856 117.170 C 258.107 117.187,259.097 116.844,260.056 116.409 C 261.015 115.974,261.530 115.627,261.200 115.638 C 260.870 115.650,259.880 115.993,259.000 116.400 M252.259 119.446 C 250.752 120.219,249.593 120.926,249.683 121.016 C 249.773 121.107,251.186 120.470,252.824 119.601 C 254.461 118.732,255.620 118.025,255.400 118.030 C 255.180 118.035,253.767 118.672,252.259 119.446 M247.900 121.829 C 247.295 122.157,246.800 122.510,246.800 122.613 C 246.800 122.999,247.432 122.757,248.400 122.000 C 249.589 121.070,249.411 121.009,247.900 121.829 M243.493 124.614 C 242.672 125.172,242.000 125.715,242.000 125.820 C 242.000 125.925,242.720 125.535,243.600 124.953 C 244.997 124.028,245.470 123.600,245.093 123.600 C 245.034 123.600,244.314 124.056,243.493 124.614 M237.387 129.343 C 233.622 132.462,227.442 138.775,227.801 139.135 C 227.893 139.226,228.470 138.694,229.084 137.952 C 232.184 134.208,238.669 128.208,241.066 126.867 C 241.466 126.643,241.699 126.366,241.584 126.250 C 241.469 126.135,239.580 127.527,237.387 129.343 M350.233 130.336 C 350.071 132.171,350.026 133.759,350.132 133.866 C 350.396 134.129,350.934 128.200,350.707 127.532 C 350.608 127.239,350.394 128.501,350.233 130.336 M349.400 138.000 C 349.244 139.347,349.206 140.539,349.316 140.649 C 349.426 140.759,349.644 139.747,349.800 138.400 C 349.956 137.053,349.994 135.861,349.884 135.751 C 349.774 135.641,349.556 136.653,349.400 138.000 M226.175 141.068 C 225.559 141.876,225.259 142.411,225.509 142.256 C 226.021 141.940,227.753 139.600,227.475 139.600 C 227.376 139.600,226.791 140.261,226.175 141.068 M348.582 144.182 C 348.429 145.202,348.394 146.127,348.504 146.237 C 348.614 146.347,348.829 145.602,348.982 144.582 C 349.135 143.561,349.170 142.637,349.060 142.527 C 348.950 142.417,348.735 143.161,348.582 144.182 M221.786 147.700 L 221.152 149.000 221.967 148.000 C 222.752 147.037,223.008 146.400,222.610 146.400 C 222.506 146.400,222.135 146.985,221.786 147.700 M347.717 148.815 C 347.471 149.467,347.414 150.000,347.591 150.000 C 347.920 150.000,348.551 148.017,348.301 147.768 C 348.226 147.692,347.963 148.164,347.717 148.815 M300.200 150.393 C 298.000 150.524,302.950 150.554,311.200 150.460 C 319.450 150.367,326.275 150.225,326.367 150.145 C 326.627 149.919,304.674 150.127,300.200 150.393 M219.381 152.037 C 219.029 152.718,218.812 153.345,218.899 153.432 C 218.986 153.519,219.356 152.962,219.722 152.195 C 220.544 150.470,220.259 150.338,219.381 152.037 M288.400 151.200 L 286.600 151.480 288.200 151.505 C 289.080 151.519,290.700 151.390,291.800 151.218 L 293.800 150.907 292.000 150.914 C 291.010 150.917,289.390 151.046,288.400 151.200 M283.600 152.000 L 282.600 152.320 283.600 152.332 C 284.150 152.338,284.960 152.189,285.400 152.000 L 286.200 151.656 285.400 151.668 C 284.960 151.674,284.150 151.824,283.600 152.000 M280.434 153.101 C 279.683 153.485,278.622 154.430,278.076 155.200 L 277.083 156.600 278.441 155.119 C 279.189 154.304,280.430 153.374,281.200 153.051 C 281.970 152.729,282.420 152.451,282.200 152.433 C 281.980 152.416,281.185 152.716,280.434 153.101 M276.319 157.700 C 275.397 159.150,273.873 163.206,274.148 163.481 C 274.286 163.620,274.400 163.512,274.400 163.240 C 274.400 162.969,275.018 161.409,275.774 159.774 C 277.173 156.746,277.347 156.086,276.319 157.700 M214.673 163.493 C 213.744 166.333,213.879 167.105,214.834 164.414 C 215.261 163.212,215.550 162.050,215.478 161.833 C 215.405 161.615,215.043 162.362,214.673 163.493 M273.386 165.053 C 273.248 165.684,272.969 166.722,272.767 167.360 C 272.565 167.998,272.414 168.898,272.432 169.360 C 272.450 169.822,272.802 168.857,273.215 167.216 C 273.627 165.575,273.892 164.158,273.802 164.069 C 273.712 163.979,273.525 164.422,273.386 165.053 M213.037 169.494 C 211.685 174.835,210.933 178.847,210.654 182.200 L 210.454 184.600 210.831 182.600 C 211.039 181.500,211.396 179.430,211.625 178.000 C 212.079 175.161,212.533 173.048,213.458 169.464 C 213.790 168.179,213.985 167.052,213.892 166.958 C 213.798 166.865,213.414 168.006,213.037 169.494 M271.814 171.859 C 271.684 172.707,271.413 174.300,271.211 175.400 C 270.712 178.129,270.263 182.646,270.516 182.400 C 270.629 182.290,270.925 180.670,271.174 178.800 C 271.423 176.930,271.790 174.325,271.991 173.011 C 272.191 171.697,272.287 170.554,272.203 170.470 C 272.120 170.387,271.945 171.012,271.814 171.859 M269.808 187.408 C 269.648 189.962,269.604 192.138,269.710 192.243 C 269.815 192.349,270.032 190.346,270.192 187.792 C 270.352 185.238,270.396 183.062,270.290 182.957 C 270.185 182.851,269.968 184.854,269.808 187.408 M209.841 189.142 C 209.682 191.641,209.634 193.768,209.736 193.869 C 209.988 194.121,210.535 185.804,210.310 185.136 C 210.211 184.841,210.000 186.644,209.841 189.142 M269.328 197.600 C 269.328 199.030,269.401 199.615,269.489 198.900 C 269.578 198.185,269.578 197.015,269.489 196.300 C 269.401 195.585,269.328 196.170,269.328 197.600 M209.362 201.800 C 209.362 205.320,209.424 206.706,209.498 204.881 C 209.572 203.056,209.572 200.176,209.497 198.481 C 209.422 196.786,209.361 198.280,209.362 201.800 M269.711 205.000 C 269.704 206.100,269.829 208.260,269.987 209.800 C 270.268 212.538,270.274 212.551,270.290 210.400 C 270.299 209.190,270.175 207.030,270.014 205.600 C 269.739 203.154,269.721 203.118,269.711 205.000 M209.889 214.000 C 210.005 216.530,210.167 218.675,210.250 218.767 C 210.504 219.048,210.332 214.340,209.995 211.800 C 209.776 210.145,209.743 210.828,209.889 214.000 M270.677 215.000 C 270.800 216.320,270.968 217.475,271.050 217.567 C 271.318 217.864,271.115 215.034,270.780 213.800 C 270.565 213.011,270.530 213.422,270.677 215.000 M271.468 219.600 C 271.600 220.590,271.855 221.670,272.036 222.000 C 272.440 222.736,272.014 219.729,271.555 218.600 C 271.360 218.120,271.325 218.521,271.468 219.600 M210.649 221.400 C 210.756 222.720,211.020 224.700,211.234 225.800 C 211.449 226.900,211.816 228.790,212.051 230.000 C 212.561 232.631,213.269 234.538,212.941 232.400 C 212.822 231.630,212.582 230.460,212.407 229.800 C 212.231 229.140,211.892 227.340,211.652 225.800 C 211.412 224.260,211.045 222.100,210.835 221.000 L 210.454 219.000 210.649 221.400 M272.440 223.200 C 272.408 223.890,273.324 226.657,273.714 227.047 C 273.954 227.288,273.646 226.121,272.803 223.600 C 272.619 223.050,272.456 222.870,272.440 223.200 M274.800 229.747 C 274.800 230.195,276.675 233.724,277.379 234.600 C 277.732 235.040,277.356 234.140,276.542 232.600 C 274.922 229.535,274.800 229.334,274.800 229.747 M213.268 234.600 C 213.262 235.040,213.411 235.760,213.600 236.200 C 214.038 237.219,214.038 236.168,213.600 234.800 C 213.343 233.996,213.277 233.957,213.268 234.600 M283.102 241.500 C 284.519 242.875,285.885 243.994,286.139 243.987 C 286.392 243.980,286.060 243.578,285.400 243.094 C 284.740 242.610,283.373 241.490,282.363 240.607 C 281.353 239.723,281.686 240.125,283.102 241.500 M287.021 244.434 C 287.356 244.975,293.316 247.087,295.200 247.331 C 296.407 247.488,296.736 247.448,296.200 247.210 C 295.760 247.016,294.950 246.841,294.400 246.821 C 293.850 246.802,291.921 246.187,290.114 245.454 C 288.306 244.721,286.915 244.262,287.021 244.434 M351.149 246.539 C 351.403 246.845,351.765 248.424,351.954 250.048 C 352.224 252.380,352.306 252.622,352.344 251.200 C 352.414 248.531,351.982 246.479,351.295 246.215 C 350.814 246.030,350.783 246.098,351.149 246.539 M348.500 246.676 C 348.885 246.776,349.515 246.776,349.900 246.676 C 350.285 246.575,349.970 246.493,349.200 246.493 C 348.430 246.493,348.115 246.575,348.500 246.676 M341.000 247.211 C 340.093 247.379,341.046 247.418,343.200 247.300 C 345.290 247.185,347.075 247.026,347.167 246.946 C 347.455 246.694,342.676 246.899,341.000 247.211 M299.000 248.023 C 299.880 248.205,301.140 248.344,301.800 248.331 C 302.844 248.311,302.792 248.265,301.400 247.977 C 300.520 247.795,299.260 247.656,298.600 247.669 C 297.556 247.689,297.608 247.735,299.000 248.023 M330.800 248.023 C 329.522 248.193,330.611 248.229,333.400 248.110 C 336.040 247.998,338.275 247.837,338.367 247.753 C 338.633 247.509,333.212 247.702,330.800 248.023 M309.900 248.699 C 313.035 248.767,318.165 248.767,321.300 248.699 C 324.435 248.632,321.870 248.576,315.600 248.576 C 309.330 248.576,306.765 248.632,309.900 248.699 M220.640 253.602 C 221.239 254.703,221.793 255.540,221.871 255.463 C 222.043 255.290,220.008 251.600,219.741 251.600 C 219.636 251.600,220.040 252.501,220.640 253.602 M352.682 257.600 C 352.803 259.690,352.969 261.475,353.051 261.567 C 353.329 261.878,353.143 257.410,352.802 255.600 C 352.564 254.338,352.528 254.937,352.682 257.600 M227.019 263.100 C 229.220 265.743,233.671 270.400,233.996 270.400 C 234.117 270.400,232.952 269.089,231.408 267.487 C 229.863 265.884,227.970 263.730,227.200 262.699 C 226.430 261.668,225.643 260.819,225.451 260.812 C 225.260 260.806,225.965 261.835,227.019 263.100 M353.498 266.200 C 353.615 268.400,353.775 270.275,353.855 270.367 C 354.127 270.679,353.942 265.805,353.613 264.000 C 353.394 262.797,353.356 263.526,353.498 266.200 M236.460 272.591 C 237.637 273.577,238.752 274.387,238.937 274.391 C 239.122 274.396,238.279 273.590,237.064 272.600 C 235.848 271.610,234.734 270.800,234.587 270.800 C 234.441 270.800,235.283 271.606,236.460 272.591 M354.166 273.800 C 354.311 275.560,354.534 278.198,354.663 279.662 C 354.892 282.280,354.877 282.334,353.748 282.946 C 353.117 283.288,352.870 283.569,353.200 283.571 C 355.134 283.582,355.311 282.830,354.808 276.728 C 354.549 273.579,354.239 270.912,354.120 270.802 C 354.000 270.691,354.021 272.040,354.166 273.800 M245.000 278.611 C 245.440 278.969,246.340 279.526,247.000 279.850 C 248.122 280.401,248.148 280.397,247.400 279.789 C 246.960 279.431,246.060 278.874,245.400 278.550 C 244.278 277.999,244.252 278.003,245.000 278.611 M253.200 282.995 C 253.200 283.205,255.935 284.411,256.349 284.383 C 256.670 284.362,253.901 282.839,253.500 282.817 C 253.335 282.808,253.200 282.888,253.200 282.995 M258.200 285.171 C 259.080 285.594,260.070 285.947,260.400 285.955 C 261.086 285.971,259.039 285.027,257.574 284.651 C 257.038 284.514,257.320 284.748,258.200 285.171 M345.200 285.983 C 343.990 286.387,343.152 286.736,343.338 286.759 C 343.826 286.818,348.000 285.576,348.000 285.372 C 348.000 285.101,347.549 285.199,345.200 285.983 M263.600 286.945 C 263.600 287.134,266.452 288.003,268.999 288.589 C 271.166 289.088,269.775 288.402,267.361 287.781 C 266.062 287.447,264.685 287.078,264.300 286.960 C 263.915 286.842,263.600 286.835,263.600 286.945 M339.400 287.443 C 335.634 288.362,334.208 288.830,336.000 288.560 C 338.003 288.257,342.800 287.119,342.800 286.946 C 342.800 286.701,341.908 286.831,339.400 287.443 M270.433 288.947 C 270.525 289.028,271.320 289.204,272.200 289.338 C 273.315 289.507,273.558 289.471,273.000 289.219 C 272.232 288.871,270.090 288.644,270.433 288.947 M330.200 289.235 C 329.320 289.422,327.729 289.684,326.663 289.817 C 325.598 289.951,324.803 290.136,324.895 290.229 C 325.066 290.399,329.483 289.842,332.800 289.231 C 334.447 288.928,334.481 288.900,333.200 288.898 C 332.430 288.897,331.080 289.049,330.200 289.235 M274.033 289.744 C 274.125 289.823,275.100 289.991,276.200 290.118 C 277.487 290.267,277.915 290.226,277.400 290.003 C 276.636 289.672,273.686 289.445,274.033 289.744 M278.833 290.547 C 278.925 290.628,280.170 290.793,281.600 290.915 C 283.238 291.054,283.756 291.018,283.000 290.815 C 281.778 290.489,278.530 290.280,278.833 290.547 M319.000 290.817 C 318.268 291.014,318.969 291.053,320.800 290.918 C 322.450 290.796,323.875 290.629,323.967 290.548 C 324.277 290.272,320.208 290.493,319.000 290.817 M287.200 291.614 C 288.630 291.775,290.970 291.899,292.400 291.890 L 295.000 291.874 292.200 291.587 C 290.660 291.429,288.320 291.304,287.000 291.311 L 284.600 291.322 287.200 291.614 M308.400 291.618 C 307.190 291.776,308.540 291.814,311.400 291.702 C 314.260 291.590,316.675 291.431,316.767 291.349 C 317.039 291.106,310.780 291.307,308.400 291.618 " stroke="none" fill="#cc8414" fill-rule="evenodd"></path><path id="path3" d="M294.105 108.687 C 294.714 108.779,295.614 108.777,296.105 108.682 C 296.597 108.587,296.100 108.511,295.000 108.514 C 293.900 108.517,293.497 108.595,294.105 108.687 M315.705 108.687 C 316.314 108.779,317.214 108.777,317.705 108.682 C 318.197 108.587,317.700 108.511,316.600 108.514 C 315.500 108.517,315.097 108.595,315.705 108.687 M45.462 149.700 C 45.564 149.865,56.796 150.000,70.422 150.000 L 95.198 150.000 95.301 219.000 L 95.403 288.000 95.402 218.900 L 95.400 149.800 70.338 149.600 C 56.554 149.490,45.360 149.535,45.462 149.700 M177.417 149.500 C 163.786 149.558,152.500 149.740,152.337 149.903 C 152.173 150.066,163.230 150.152,176.906 150.094 C 192.549 150.027,201.918 149.842,202.166 149.594 C 202.383 149.377,202.479 149.244,202.380 149.297 C 202.281 149.350,191.048 149.442,177.417 149.500 M331.724 150.299 C 334.762 150.367,339.622 150.367,342.524 150.299 C 345.426 150.231,342.940 150.175,337.000 150.175 C 331.060 150.175,328.686 150.231,331.724 150.299 M307.500 150.696 C 308.875 150.774,311.125 150.774,312.500 150.696 C 313.875 150.618,312.750 150.554,310.000 150.554 C 307.250 150.554,306.125 150.618,307.500 150.696 M294.100 151.076 C 294.485 151.176,295.115 151.176,295.500 151.076 C 295.885 150.975,295.570 150.893,294.800 150.893 C 294.030 150.893,293.715 150.975,294.100 151.076 M270.093 188.800 C 270.093 189.570,270.175 189.885,270.276 189.500 C 270.376 189.115,270.376 188.485,270.276 188.100 C 270.175 187.715,270.093 188.030,270.093 188.800 M209.320 193.600 C 209.320 194.810,209.395 195.305,209.487 194.700 C 209.578 194.095,209.578 193.105,209.487 192.500 C 209.395 191.895,209.320 192.390,209.320 193.600 M269.758 197.800 C 269.758 200.880,269.821 202.087,269.897 200.482 C 269.973 198.878,269.973 196.358,269.896 194.882 C 269.819 193.407,269.757 194.720,269.758 197.800 M270.101 206.200 C 270.105 207.080,270.187 207.393,270.283 206.895 C 270.379 206.398,270.375 205.678,270.275 205.295 C 270.175 204.913,270.096 205.320,270.101 206.200 M209.320 210.000 C 209.320 211.210,209.395 211.705,209.487 211.100 C 209.578 210.495,209.578 209.505,209.487 208.900 C 209.395 208.295,209.320 208.790,209.320 210.000 M330.900 247.876 C 331.285 247.976,331.915 247.976,332.300 247.876 C 332.685 247.775,332.370 247.693,331.600 247.693 C 330.830 247.693,330.515 247.775,330.900 247.876 M326.900 248.276 C 327.285 248.376,327.915 248.376,328.300 248.276 C 328.685 248.175,328.370 248.093,327.600 248.093 C 326.830 248.093,326.515 248.175,326.900 248.276 M355.293 281.600 C 355.293 282.370,355.375 282.685,355.476 282.300 C 355.576 281.915,355.576 281.285,355.476 280.900 C 355.375 280.515,355.293 280.830,355.293 281.600 M317.300 291.476 C 317.685 291.576,318.315 291.576,318.700 291.476 C 319.085 291.375,318.770 291.293,318.000 291.293 C 317.230 291.293,316.915 291.375,317.300 291.476 M296.300 292.298 C 298.555 292.370,302.245 292.370,304.500 292.298 C 306.755 292.227,304.910 292.169,300.400 292.169 C 295.890 292.169,294.045 292.227,296.300 292.298 " stroke="none" fill="#bc6c1b" fill-rule="evenodd"></path><path id="path4" d="M303.000 108.029 C 301.045 108.189,301.951 108.262,306.000 108.269 C 311.541 108.280,312.137 108.162,307.800 107.914 C 306.700 107.851,304.540 107.903,303.000 108.029 M288.800 108.809 C 288.389 109.080,288.957 109.124,290.600 108.947 C 291.920 108.805,293.075 108.624,293.167 108.544 C 293.568 108.196,289.339 108.452,288.800 108.809 M318.433 108.546 C 318.525 108.626,319.590 108.800,320.800 108.932 C 322.237 109.088,322.722 109.048,322.200 108.814 C 321.443 108.475,318.079 108.236,318.433 108.546 M283.200 109.606 C 282.778 109.882,283.015 109.923,284.000 109.742 C 285.725 109.425,286.051 109.198,284.767 109.206 C 284.235 109.209,283.530 109.389,283.200 109.606 M326.833 109.347 C 326.925 109.428,327.720 109.614,328.600 109.762 C 329.746 109.954,330.030 109.914,329.600 109.621 C 329.060 109.253,326.432 108.993,326.833 109.347 M73.400 110.297 C 149.017 110.570,202.400 110.571,202.400 110.300 C 202.400 110.135,166.985 110.044,123.700 110.097 C 80.415 110.151,57.780 110.241,73.400 110.297 M278.400 110.400 C 277.605 110.914,278.604 110.914,279.800 110.400 L 280.600 110.056 279.800 110.034 C 279.360 110.022,278.730 110.187,278.400 110.400 M333.400 110.400 C 334.596 110.914,335.595 110.914,334.800 110.400 C 334.470 110.187,333.840 110.022,333.400 110.034 L 332.600 110.056 333.400 110.400 M274.400 111.200 C 273.867 111.545,273.867 111.588,274.400 111.588 C 274.730 111.588,275.270 111.413,275.600 111.200 C 276.133 110.855,276.133 110.812,275.600 110.812 C 275.270 110.812,274.730 110.987,274.400 111.200 M337.233 110.944 C 337.325 111.023,337.940 111.208,338.600 111.356 C 339.476 111.552,339.638 111.515,339.200 111.218 C 338.660 110.853,336.832 110.598,337.233 110.944 M202.585 130.200 C 202.585 140.760,202.637 145.023,202.700 139.672 C 202.763 134.322,202.763 125.682,202.700 120.472 C 202.636 115.263,202.585 119.640,202.585 130.200 M342.200 112.000 C 342.640 112.189,343.270 112.344,343.600 112.344 C 343.978 112.344,343.904 112.217,343.400 112.000 C 342.960 111.811,342.330 111.656,342.000 111.656 C 341.622 111.656,341.696 111.783,342.200 112.000 M351.746 118.200 C 351.747 120.400,351.814 121.249,351.895 120.087 C 351.976 118.924,351.976 117.124,351.893 116.087 C 351.811 115.049,351.745 116.000,351.746 118.200 M245.024 123.013 C 244.596 123.336,244.427 123.600,244.647 123.600 C 244.867 123.600,245.396 123.336,245.824 123.013 C 246.251 122.690,246.420 122.425,246.200 122.425 C 245.980 122.425,245.451 122.690,245.024 123.013 M351.301 125.000 C 351.305 125.880,351.387 126.193,351.483 125.695 C 351.579 125.198,351.575 124.478,351.475 124.095 C 351.375 123.713,351.296 124.120,351.301 125.000 M242.629 124.609 C 242.205 124.929,241.938 125.271,242.035 125.369 C 242.132 125.466,242.659 125.202,243.206 124.782 C 243.753 124.361,244.020 124.020,243.800 124.022 C 243.580 124.024,243.053 124.288,242.629 124.609 M350.928 129.200 C 350.928 130.630,351.001 131.215,351.089 130.500 C 351.178 129.785,351.178 128.615,351.089 127.900 C 351.001 127.185,350.928 127.770,350.928 129.200 M235.570 130.300 L 234.600 131.400 235.800 130.400 C 236.460 129.850,237.075 129.355,237.167 129.300 C 237.258 129.245,237.155 129.200,236.936 129.200 C 236.718 129.200,236.103 129.695,235.570 130.300 M350.120 137.200 C 350.120 138.410,350.195 138.905,350.287 138.300 C 350.378 137.695,350.378 136.705,350.287 136.100 C 350.195 135.495,350.120 135.990,350.120 137.200 M228.975 136.900 L 227.800 138.200 229.100 137.025 C 229.815 136.379,230.400 135.794,230.400 135.725 C 230.400 135.416,230.070 135.688,228.975 136.900 M349.309 143.600 C 349.309 144.590,349.387 144.995,349.482 144.500 C 349.578 144.005,349.578 143.195,349.482 142.700 C 349.387 142.205,349.309 142.610,349.309 143.600 M223.669 143.639 C 222.910 144.854,223.366 145.016,224.155 143.812 C 224.520 143.256,224.678 142.800,224.505 142.800 C 224.333 142.800,223.957 143.178,223.669 143.639 M348.460 148.251 C 348.357 150.407,348.549 150.383,330.964 150.500 L 314.600 150.609 331.038 150.705 C 349.352 150.811,349.096 150.848,348.690 148.135 L 348.520 147.000 348.460 148.251 M45.543 150.103 C 45.710 150.270,56.996 150.360,70.623 150.303 L 95.400 150.200 70.320 150.000 C 56.526 149.890,45.376 149.936,45.543 150.103 M152.186 150.500 C 152.082 150.775,151.953 181.960,151.899 219.800 L 151.800 288.600 123.825 288.703 C 101.726 288.784,95.776 288.700,95.495 288.303 C 95.230 287.928,95.181 287.953,95.303 288.400 C 95.447 288.926,98.958 289.000,123.833 289.000 L 152.200 289.000 152.301 219.703 L 152.402 150.406 176.901 150.300 L 201.400 150.194 176.887 150.097 C 157.573 150.021,152.335 150.106,152.186 150.500 M298.918 151.098 C 300.633 151.173,303.333 151.172,304.918 151.097 C 306.503 151.021,305.100 150.959,301.800 150.960 C 298.500 150.961,297.203 151.022,298.918 151.098 M292.700 151.482 C 293.195 151.578,294.005 151.578,294.500 151.482 C 294.995 151.387,294.590 151.309,293.600 151.309 C 292.610 151.309,292.205 151.387,292.700 151.482 M287.900 151.882 C 288.395 151.978,289.205 151.978,289.700 151.882 C 290.195 151.787,289.790 151.709,288.800 151.709 C 287.810 151.709,287.405 151.787,287.900 151.882 M282.400 152.806 C 281.978 153.082,282.215 153.123,283.200 152.942 C 284.925 152.625,285.251 152.398,283.967 152.406 C 283.435 152.409,282.730 152.589,282.400 152.806 M279.206 154.594 C 278.463 155.361,277.932 156.037,278.027 156.098 C 278.122 156.158,278.856 155.531,279.659 154.704 C 280.461 153.877,280.991 153.200,280.837 153.200 C 280.683 153.200,279.949 153.827,279.206 154.594 M217.265 155.417 C 216.595 156.888,216.723 157.202,217.447 155.865 C 217.786 155.240,217.988 154.654,217.896 154.563 C 217.805 154.471,217.521 154.856,217.265 155.417 M215.858 158.904 C 214.928 161.340,215.080 161.804,216.036 159.447 C 216.472 158.373,216.758 157.424,216.672 157.338 C 216.586 157.252,216.220 157.957,215.858 158.904 M272.229 172.229 C 272.081 172.815,272.038 173.372,272.132 173.466 C 272.227 173.560,272.424 173.158,272.571 172.571 C 272.719 171.985,272.762 171.428,272.668 171.334 C 272.573 171.240,272.376 171.642,272.229 172.229 M211.800 172.400 C 211.650 172.873,211.617 173.350,211.727 173.460 C 211.837 173.570,212.050 173.273,212.200 172.800 C 212.350 172.327,212.383 171.850,212.273 171.740 C 212.163 171.630,211.950 171.927,211.800 172.400 M211.049 176.215 C 210.912 176.573,210.815 177.166,210.834 177.533 C 210.853 177.900,211.027 177.669,211.221 177.020 C 211.598 175.758,211.465 175.133,211.049 176.215 M271.429 177.029 C 271.281 177.615,271.238 178.172,271.332 178.266 C 271.427 178.360,271.624 177.958,271.771 177.371 C 271.919 176.785,271.962 176.228,271.868 176.134 C 271.773 176.040,271.576 176.442,271.429 177.029 M210.249 181.015 C 210.112 181.373,210.016 182.056,210.036 182.533 C 210.062 183.147,210.185 183.008,210.459 182.056 C 210.857 180.672,210.694 179.858,210.249 181.015 M270.582 183.382 C 270.429 184.402,270.394 185.327,270.504 185.437 C 270.614 185.547,270.829 184.802,270.982 183.782 C 271.135 182.761,271.170 181.837,271.060 181.727 C 270.950 181.617,270.735 182.361,270.582 183.382 M209.456 187.684 C 209.321 188.188,209.230 189.320,209.254 190.200 C 209.292 191.578,209.346 191.471,209.643 189.428 C 209.998 186.999,209.895 186.046,209.456 187.684 M270.167 197.400 C 270.167 201.580,270.226 203.236,270.298 201.079 C 270.371 198.923,270.370 195.503,270.298 193.479 C 270.225 191.456,270.166 193.220,270.167 197.400 M270.440 210.433 C 270.462 211.185,270.630 212.250,270.813 212.800 C 271.029 213.446,271.066 213.020,270.919 211.600 C 270.659 209.083,270.381 208.407,270.440 210.433 M209.228 213.633 C 209.244 214.605,209.414 215.760,209.608 216.200 C 209.831 216.708,209.874 216.124,209.724 214.600 C 209.440 211.699,209.190 211.212,209.228 213.633 M271.256 216.400 C 271.256 216.730,271.411 217.360,271.600 217.800 C 271.817 218.304,271.944 218.378,271.944 218.000 C 271.944 217.670,271.789 217.040,271.600 216.600 C 271.383 216.096,271.256 216.022,271.256 216.400 M272.012 220.400 C 272.012 220.730,272.187 221.270,272.400 221.600 C 272.745 222.133,272.788 222.133,272.788 221.600 C 272.788 221.270,272.613 220.730,272.400 220.400 C 272.055 219.867,272.012 219.867,272.012 220.400 M210.068 221.200 C 210.062 221.750,210.211 222.560,210.400 223.000 L 210.744 223.800 210.732 223.000 C 210.726 222.560,210.576 221.750,210.400 221.200 L 210.080 220.200 210.068 221.200 M210.868 226.200 C 210.862 226.640,211.011 227.360,211.200 227.800 C 211.638 228.819,211.638 227.768,211.200 226.400 C 210.943 225.596,210.877 225.557,210.868 226.200 M211.612 230.400 C 211.612 230.730,211.787 231.270,212.000 231.600 C 212.345 232.133,212.388 232.133,212.388 231.600 C 212.388 231.270,212.213 230.730,212.000 230.400 C 211.655 229.867,211.612 229.867,211.612 230.400 M216.030 244.800 C 216.028 245.376,217.157 247.666,217.186 247.146 C 217.194 247.006,216.937 246.286,216.616 245.546 C 216.294 244.806,216.031 244.470,216.030 244.800 M293.200 246.382 C 293.530 246.605,294.145 246.791,294.567 246.794 C 295.590 246.802,295.271 246.573,293.800 246.244 C 292.924 246.048,292.762 246.085,293.200 246.382 M345.000 246.400 L 343.000 246.674 344.800 246.690 C 345.790 246.698,347.140 246.568,347.800 246.400 C 349.377 245.999,347.925 245.999,345.000 246.400 M297.000 247.190 C 297.764 247.528,300.314 247.757,299.967 247.456 C 299.875 247.376,298.990 247.204,298.000 247.073 C 296.798 246.914,296.466 246.953,297.000 247.190 M334.300 247.489 C 335.015 247.578,336.185 247.578,336.900 247.489 C 337.615 247.401,337.030 247.328,335.600 247.328 C 334.170 247.328,333.585 247.401,334.300 247.489 M302.305 247.883 C 302.802 247.979,303.522 247.975,303.905 247.875 C 304.287 247.775,303.880 247.696,303.000 247.701 C 302.120 247.705,301.807 247.787,302.305 247.883 M327.705 247.887 C 328.314 247.979,329.214 247.977,329.705 247.882 C 330.197 247.787,329.700 247.711,328.600 247.714 C 327.500 247.717,327.097 247.795,327.705 247.887 M310.100 248.299 C 313.125 248.367,318.075 248.367,321.100 248.299 C 324.125 248.231,321.650 248.175,315.600 248.175 C 309.550 248.175,307.075 248.231,310.100 248.299 M352.514 250.600 C 352.517 251.700,352.595 252.103,352.687 251.495 C 352.779 250.886,352.777 249.986,352.682 249.495 C 352.587 249.003,352.511 249.500,352.514 250.600 M352.893 254.000 C 352.893 254.770,352.975 255.085,353.076 254.700 C 353.176 254.315,353.176 253.685,353.076 253.300 C 352.975 252.915,352.893 253.230,352.893 254.000 M353.223 259.033 C 353.236 259.895,353.403 261.320,353.594 262.200 C 353.852 263.386,353.884 263.024,353.719 260.800 C 353.477 257.547,353.186 256.510,353.223 259.033 M228.000 264.925 C 228.000 264.994,228.585 265.579,229.300 266.225 L 230.600 267.400 229.425 266.100 C 228.330 264.888,228.000 264.616,228.000 264.925 M354.069 268.000 C 354.056 268.550,354.195 269.720,354.377 270.600 C 354.589 271.626,354.716 271.841,354.731 271.200 C 354.744 270.650,354.605 269.480,354.423 268.600 C 354.211 267.574,354.084 267.359,354.069 268.000 M231.400 268.623 C 234.691 271.656,235.370 272.164,233.600 270.267 C 232.610 269.206,231.440 268.154,231.000 267.928 C 230.529 267.686,230.694 267.972,231.400 268.623 M239.600 275.495 C 239.600 275.884,241.214 276.919,241.451 276.682 C 241.547 276.586,241.169 276.210,240.612 275.845 C 240.056 275.480,239.600 275.322,239.600 275.495 M354.863 276.600 C 354.854 277.040,354.995 278.120,355.177 279.000 L 355.508 280.600 355.514 279.200 C 355.517 278.430,355.376 277.350,355.200 276.800 C 354.941 275.991,354.877 275.953,354.863 276.600 M249.200 281.564 C 250.091 282.271,251.600 282.924,251.600 282.603 C 251.600 282.536,250.835 282.096,249.900 281.625 C 248.333 280.837,248.278 280.832,249.200 281.564 M252.800 283.400 C 253.350 283.714,253.980 283.972,254.200 283.972 C 254.420 283.972,254.150 283.714,253.600 283.400 C 253.050 283.086,252.420 282.828,252.200 282.828 C 251.980 282.828,252.250 283.086,252.800 283.400 M351.400 284.429 C 350.520 284.852,350.238 285.086,350.774 284.949 C 352.239 284.573,354.286 283.629,353.600 283.645 C 353.270 283.653,352.280 284.006,351.400 284.429 M336.000 288.800 C 335.467 289.145,335.467 289.188,336.000 289.188 C 336.330 289.188,336.870 289.013,337.200 288.800 C 337.733 288.455,337.733 288.412,337.200 288.412 C 336.870 288.412,336.330 288.587,336.000 288.800 M331.600 289.600 C 330.776 289.864,330.741 289.926,331.400 289.954 C 331.840 289.973,332.470 289.813,332.800 289.600 C 333.501 289.147,333.014 289.147,331.600 289.600 M275.400 290.400 C 275.536 290.620,276.042 290.787,276.524 290.772 C 277.369 290.745,277.371 290.731,276.600 290.400 C 275.499 289.927,275.108 289.927,275.400 290.400 M326.600 290.400 L 325.400 290.705 326.600 290.747 C 327.260 290.769,328.070 290.613,328.400 290.400 C 329.143 289.920,328.487 289.920,326.600 290.400 M280.200 291.181 C 280.968 291.529,283.110 291.756,282.767 291.453 C 282.675 291.372,281.880 291.196,281.000 291.062 C 279.885 290.893,279.642 290.929,280.200 291.181 M320.200 291.200 L 319.000 291.505 320.200 291.547 C 320.860 291.569,321.670 291.413,322.000 291.200 C 322.743 290.720,322.087 290.720,320.200 291.200 M287.244 292.035 C 287.763 292.364,292.732 292.575,292.367 292.253 C 292.275 292.172,290.960 292.011,289.444 291.894 C 287.784 291.767,286.909 291.823,287.244 292.035 M310.600 292.000 L 308.200 292.266 310.800 292.305 C 312.230 292.326,313.760 292.189,314.200 292.000 C 315.175 291.581,314.387 291.581,310.600 292.000 " stroke="none" fill="#ac4c20" fill-rule="evenodd"></path></g></svg>